<?xml version="1.0" encoding="UTF-8"?>
<svg id="Calque_1" data-name="Calque 1" xmlns="http://www.w3.org/2000/svg" viewBox="0 0 894.64 88.99">
  <defs>
    <style>
      .cls-1 {
        fill: #1d1d1b;
      }
    </style>
  </defs>
  <path class="cls-1" d="M171.86,54.92h-33.12c-2.49,0-4.51-2.02-4.51-4.5V11.65c0-5.3-4.31-9.61-9.61-9.61h-18.77c-5.3,0-9.61,4.31-9.61,9.61v65.96c0,5.3,4.31,9.61,9.61,9.61h65.98c5.29,0,9.6-4.3,9.61-9.59l.02-13.08c0-2.57-.99-4.99-2.81-6.81-1.82-1.82-4.23-2.82-6.8-2.82Z"/>
  <path class="cls-1" d="M246.78,2.3h-65.65c-5.31,0-9.63,4.32-9.63,9.64v12.78c0,5.31,4.32,9.64,9.63,9.64h9.04c2.49,0,4.51,2.02,4.51,4.52v38.72c0,5.31,4.32,9.64,9.64,9.64h19.28c5.31,0,9.63-4.32,9.63-9.64v-38.72c0-2.49,2.02-4.52,4.52-4.52h9.04c5.31,0,9.64-4.32,9.64-9.64v-12.78c0-5.31-4.32-9.64-9.64-9.64Z"/>
  <path class="cls-1" d="M663.07,44.03h-21.64c-2.38,0-4.32,1.94-4.32,4.32v4.74c0,3.47-2.82,6.3-6.29,6.3h-1.12c-3.45,0-6.26-2.81-6.26-6.26v-12.71c0-3.45,2.8-6.26,6.26-6.26h28.2c5.26,0,9.54-4.28,9.54-9.54v-12.94c0-5.26-4.28-9.54-9.54-9.54h-60.97c-5.25,0-9.52,4.27-9.52,9.52v65.8c0,5.3,4.31,9.61,9.61,9.61h66.06c5.24,0,9.51-4.27,9.51-9.51v-24.04c0-5.24-4.26-9.51-9.51-9.51Z"/>
  <path class="cls-1" d="M345.18,58.84h-34.88c-1.51,0-2.74-1.23-2.74-2.74v-4.02c0-1.51,1.23-2.74,2.74-2.74h30.39c4.92,0,8.92-4.01,8.92-8.93V10.97c0-4.92-4-8.92-8.92-8.92h-62.19c-4.92,0-8.92,4-8.92,8.92v64.88c0,6.69,3.95,11.37,9.61,11.37h65.97c5.29,0,9.6-4.3,9.62-9.59l.02-9.17c0-2.57-.99-4.98-2.8-6.8-1.81-1.81-4.23-2.82-6.8-2.82ZM305.32,31.65v-6.62c0-2.09,1.7-3.8,3.8-3.8h6.12c2.09,0,3.8,1.7,3.8,3.8v6.62c0,2.1-1.7,3.8-3.8,3.8h-6.12c-2.09,0-3.8-1.7-3.8-3.8Z"/>
  <path class="cls-1" d="M564.56,58.7h-34.88c-1.51,0-2.74-1.23-2.74-2.74v-4.02c0-1.51,1.23-2.74,2.74-2.74h30.39c4.92,0,8.92-4.01,8.92-8.93V10.84c0-4.92-4-8.92-8.92-8.92h-62.19c-4.92,0-8.92,4-8.92,8.92v64.88c0,6.69,3.95,11.37,9.61,11.37h65.97c5.29,0,9.6-4.3,9.62-9.59l.02-9.17c0-2.57-.99-4.98-2.8-6.8-1.81-1.81-4.23-2.82-6.8-2.82ZM524.7,31.51v-6.62c0-2.09,1.7-3.8,3.8-3.8h6.12c2.09,0,3.8,1.7,3.8,3.8v6.62c0,2.1-1.7,3.8-3.8,3.8h-6.12c-2.09,0-3.8-1.7-3.8-3.8Z"/>
  <path class="cls-1" d="M443.61,2.05h-65.98c-5.3,0-9.61,4.31-9.61,9.61v65.96c0,5.3,4.31,9.61,9.61,9.61h18.77c5.3,0,9.61-4.31,9.61-9.61v-38.76c0-2.49,2.02-4.51,4.51-4.51h7.66c1.51,0,2.74,1.23,2.74,2.74v2.77c0,5.29,4.3,9.6,9.59,9.61l13.09.02h.02c2.56,0,4.97-1,6.79-2.81,1.81-1.82,2.82-4.23,2.82-6.8V11.64c-.01-5.29-4.32-9.59-9.61-9.59Z"/>
  <path class="cls-1" d="M726.99,0c-24.53,0-44.5,19.96-44.5,44.5s19.96,44.5,44.5,44.5,44.5-19.96,44.5-44.5S751.53,0,726.99,0ZM733.97,49c0,2.13-1.73,3.87-3.87,3.87h-6.23c-2.14,0-3.87-1.73-3.87-3.87v-9c0-2.14,1.73-3.87,3.87-3.87h6.23c2.14,0,3.87,1.73,3.87,3.87v9Z"/>
  <path class="cls-1" d="M851.01,70.98c1.79,0,3.47.7,4.74,1.96l14.04,14.04c1.86,1.85,4.86,1.84,6.71,0l16.76-16.76c1.85-1.85,1.85-4.86,0-6.71l-14.04-14.04c-1.27-1.27-1.96-2.95-1.96-4.74s.7-3.47,1.96-4.74l14.04-14.04c1.85-1.85,1.85-4.86,0-6.71l-16.76-16.76c-1.78-1.78-4.91-1.79-6.71,0l-14.04,14.04c-2.53,2.53-6.95,2.53-9.48,0l-14.04-14.04c-1.8-1.8-4.93-1.79-6.71,0l-16.76,16.76c-1.85,1.85-1.85,4.86,0,6.71l14.04,14.04c1.27,1.27,1.96,2.95,1.96,4.74s-.7,3.47-1.96,4.74l-14.04,14.04c-.9.9-1.39,2.09-1.39,3.35s.49,2.46,1.39,3.36l16.76,16.76c1.86,1.85,4.86,1.84,6.71,0l14.04-14.04c1.27-1.27,2.95-1.96,4.74-1.96Z"/>
  <path class="cls-1" d="M69.4,9.88c-.85-4.53-4.81-7.83-9.43-7.83H23.03c-4.62,0-8.58,3.29-9.43,7.83L.08,82.1c-.24,1.27.1,2.56.92,3.56.82.99,2.04,1.56,3.33,1.56h10.36c2.07,0,3.86-1.48,4.24-3.52l.95-5.06c.4-2.13,2.27-3.68,4.43-3.68h34.42c2.17,0,4.03,1.55,4.43,3.68l.95,5.06c.38,2.04,2.17,3.52,4.24,3.52h10.36c1.29,0,2.5-.57,3.33-1.56s1.16-2.29.92-3.56l-13.53-72.23ZM48.36,47.94c0,2.1-1.7,3.8-3.8,3.8h-6.12c-2.1,0-3.8-1.7-3.8-3.8v-6.62c0-2.1,1.7-3.8,3.8-3.8h6.12c2.1,0,3.8,1.7,3.8,3.8v6.62Z"/>
</svg>