<?xml version="1.0" encoding="UTF-8"?>
<svg id="Layer_1" data-name="Layer 1" xmlns="http://www.w3.org/2000/svg" viewBox="0 0 267.37 226.52">
  <path d="M179.47,131.52c1.44-1.44,13.72-1.5,16.39-1.13.66.09,5.15,1.94,5.35,2.14.18.17,1.98,4.27,2.02,4.51.13.87-.88,2.3-.93,3.81-.14,4.11.75,8.56.72,12.05,0,.49-1.6,5.17-1.8,5.37-.59.58-5.09,2.05-6.33,2.17-10.09.94-31.02.97-41.08,0-4.86-.47-8.03-2.39-8.5-7.5-1.27-13.99,1.03-29.84.03-44.05.22-1.63,2.07-4.94,3.62-5.38,1.25-.35,2.67.1,3.88-.12,9.4-1.71,28.28-1.93,38.05-1.04,3.14.29,8.01,2.13,8.49,5.51.59,4.23.91,15.8-4.5,16.56-5.07.7-21.55-1.78-24.08,1.92-.96,1.41-.88,12.25.52,13.58,1.79,1.69,5.21,1.53,6.58-.48,1.01-1.49-.02-6.34,1.57-7.93Z"/>
  <path d="M198.85,75.4c1.69.47,4.53,5.67,4.52,7.49,0,.99-.9,1.94-1.02,3.01-.43,3.89.71,5.9-3.62,8.38l-47.91.14c-3.16-1.01-5.21-4.17-5.51-7.49-1.24-13.67,1.01-29.16.03-43.05.56-2.7,2.41-4.84,4.62-6.38l42.93-.15c3.36.06,6.01,2.17,6.47,5.53.58,4.22.6,17.85.02,22.04-.17,1.19-3.02,4.47-3.53,4.47h-23c-1.98,0-1.98,6,0,6h26ZM178.31,51.44c-8.46-3.14-8.46.45-7.96,7.96h8s-.04-7.96-.04-7.96Z"/>
  <path d="M231.03,102.58c14.03-2.37,27.73,3.98,33.51,17.12,1.68,3.81,1.4,5.39,1.8,9.19.11,1.07,1.01,2.02,1.01,3.01,0,.58-.96,5.89-1.19,6.82-4.21,17-23.32,26.37-39.52,19.88-16.91-6.78-23.65-26.96-14.17-42.57,3.35-5.52,12.08-12.36,18.55-13.45ZM241.31,126.44c-.22-.23-5.51-.21-6.39.04-2.27.64-2.23,8.39-.61,9.46,1.32.87,6.63.93,7.57-.5s.44-7.95-.57-9Z"/>
  <path d="M258.53,203.22c.38.38,1.58.42,2.36,1.12,1.68,1.5,2.62,4.69,4.99,6.03.66.97.7,2.35.38,3.44-.24.81-11.12,11.73-11.88,12.12-4.67,2.4-9.37-6.48-13.05-9.01-1.3-.89-2.89-1.7-4.49-1.58-3.01.24-8.63,9.15-11.46,10.59-1.28.65-3.09.76-4.43.36-.85-.25-12.26-11.64-12.51-12.48-.36-1.21-.2-2.31.38-3.44,2.4-4.67,13.72-8.79,10.06-16-1.27-2.5-9.82-8.39-10.46-10.58-.26-.9.63-3.78,1.12-4.25.28-.28,1.23.02,1.59-.31,2.1-1.91,4.57-6.5,7.69-8.86,9.75-7.36,12.36,13.27,21.56,8.55,2.65-1.36,7.29-8.7,9.94-10.06,1.13-.58,2.23-.74,3.44-.38,1.28.38,13.41,13.07,13.41,14.41,0,3.12-10.94,10.47-11.72,13.09-.9,3.03.91,3.6,2.4,5.46.4.49.34,1.41.69,1.76Z"/>
  <path d="M215.01.55l44.85-.16c2.7.37,5.76,3,6.34,5.66.71,3.25.65,17.29.16,20.85-.19,1.43-1.75,4.39-2.98,5.02-1.39.71-13.66.88-15.41.36-.7-.21-3.3-2.8-3.5-3.5-.44-1.51.22-3.37-.19-4.81-.71-2.55-9.3-2.79-9.95,1.9-1.18,8.41,1.02,19.21-.09,27.91-1.55,5.24-14.86,5.41-19.23,4.46-1.47-.32-5.13-3.08-5.54-4.46l-.14-47.91c.33-2.36,3.53-4.43,5.68-5.32Z"/>
  <path d="M45.22,39.53c.31.31,1.9,5.35,2.12,6.38.94,4.28,1.19,9.62,2.02,13.98,1.74,9.13,4.96,20.03,5.98,29.02.42,3.65.37,5.23-3.47,5.52-1.27.1-7.23.21-7.49-.06-1.18-1.22-.83-6.67-1.08-6.92-2.42-2.4-23.67-.31-28.49-1.07-3.16.29-2.58,4.23-3.61,6.39-1.45,3.03-7.7,1.17-10.85,1.62-1.26-5,1.08-10.44,1.97-15.5,1.94-11.01,3.31-24.11,6.21-34.79,1.13-4.17,2.67-6.32,7.26-6.74,5.48-.5,18.83-.7,24.05.03.66.09,5.16,1.93,5.36,2.14ZM23.39,62.44c-.28.28-.45,6.59.93,7.5s6.63.93,7.57-.5c1.27-1.92.67-6.47-1.51-7.56-1.57-.79-6.03-.37-6.99.57Z"/>
  <path d="M134.22,56.27c-.21.2-4.7,2.04-5.36,2.14-3.91.55-15.73.46-18.05-2.97-3.47-5.13-.35-21.74-1.54-28.46-.77-2.72-7.51-1.14-10.27-1.73-2.08-.45-4.05-2.41-4.5-4.5-.5-2.32-.51-14.74.31-16.37.76-1.5,4.26-3.74,6.02-3.98,13.26.91,27.98-1.19,41.05-.03,4.33.38,8.8,1.65,9.47,6.53.3,2.19.39,12.18-.12,13.89-.21.69-3.81,4.29-4.5,4.5-2.63.78-9.48-1.23-10.31,1.69-.81,7.25.84,15.87-.08,22.92-.11.82-1.89,6.14-2.13,6.38Z"/>
  <path d="M114.85,72.4c.39.07,3.54,1.54,4.05,1.95,3.01,2.42,2.97,9.91,2.46,13.56-.56,3.98-2.54,6.21-6.47,6.54-14.76,1.21-31.12-1.01-46.07-.02-3.44-.94-4.69-4.28-5.47-7.53,1.19-13.21-1.62-29.15,0-41.99.37-2.96,1.96-6.08,4.95-7.05,2.48-.8,12.73-.9,15.57-.48,2.55.37,5.18,2.95,5.48,5.52.96,8.35-1.15,18.88-.04,27.04.17,1.24.58,1.73,1.53,2.47,7.29.86,17.07-1.17,24,0Z"/>
</svg>