<?xml version="1.0" encoding="UTF-8"?>
<svg id="Calque_1" data-name="Calque 1" xmlns="http://www.w3.org/2000/svg" viewBox="0 0 861.58 729.06">
  <defs>
    <style>
      .cls-1 {
        fill: #1d1d1b;
      }
    </style>
  </defs>
  <path class="cls-1" d="M369.53,232.97h-71.21c-5.35,0-9.69-4.34-9.69-9.68v-83.35c0-11.39-9.27-20.65-20.65-20.65h-40.36c-11.39,0-20.65,9.27-20.65,20.65v141.84c0,11.39,9.27,20.65,20.65,20.65h141.87c11.37,0,20.64-9.25,20.66-20.63l.04-28.13c0-5.53-2.14-10.73-6.04-14.64-3.91-3.91-9.09-6.06-14.61-6.06Z"/>
  <path class="cls-1" d="M467.14.54h-141.17c-11.42,0-20.71,9.3-20.71,20.72v36.12c0,11.42,9.29,20.72,20.71,20.72h19.44c5.35,0,9.7,4.35,9.7,9.71v74.62c0,11.42,9.3,20.72,20.72,20.72h41.45c11.42,0,20.71-9.3,20.71-20.72v-74.62c0-5.36,4.35-9.71,9.71-9.71h19.44c11.42,0,20.72-9.3,20.72-20.72V21.26c0-11.42-9.3-20.72-20.72-20.72Z"/>
  <path class="cls-1" d="M634.03,420.36h-46.53c-5.13,0-9.3,4.17-9.3,9.3v10.2c0,7.47-6.07,13.54-13.54,13.54h-2.41c-7.42,0-13.45-6.04-13.45-13.46v-27.33c0-7.42,6.03-13.45,13.45-13.45h60.64c11.31,0,20.51-9.2,20.51-20.51v-27.83c0-11.31-9.2-20.51-20.51-20.51h-131.1c-11.28,0-20.46,9.18-20.46,20.47v141.49c0,11.4,9.27,20.66,20.65,20.66h142.04c11.27,0,20.45-9.17,20.45-20.45v-51.68c0-11.27-9.17-20.45-20.44-20.45Z"/>
  <path class="cls-1" d="M633.87,241.15h-75.01c-3.25,0-5.9-2.64-5.9-5.89v-8.64c0-3.25,2.65-5.89,5.9-5.89h65.35c10.58,0,19.19-8.62,19.19-19.2v-63.31c0-10.58-8.61-19.19-19.19-19.19h-133.73c-10.58,0-19.19,8.61-19.19,19.19v139.51c0,14.39,8.49,24.45,20.65,24.45h141.85c11.37,0,20.65-9.25,20.68-20.63l.04-19.71c0-5.52-2.13-10.71-6.03-14.63-3.9-3.9-9.09-6.06-14.61-6.06ZM548.16,182.67v-14.24c0-4.5,3.66-8.16,8.16-8.16h13.16c4.5,0,8.16,3.66,8.16,8.16v14.24c0,4.51-3.66,8.17-8.16,8.17h-13.16c-4.5,0-8.16-3.66-8.16-8.17Z"/>
  <path class="cls-1" d="M149.22,136.12c-1.83-9.75-10.35-16.84-20.28-16.84H49.53c-9.92,0-18.45,7.08-20.28,16.84L.16,291.43c-.52,2.72.21,5.51,1.97,7.64,1.77,2.13,4.38,3.36,7.15,3.36h17.49c4.46,0,8.29-3.18,9.11-7.56l2.04-10.88c.86-4.58,4.87-7.91,9.52-7.91h83.56c4.66,0,8.66,3.32,9.53,7.91l2.03,10.88c.82,4.38,4.66,7.56,9.12,7.56h17.49c2.77,0,5.38-1.23,7.15-3.36s2.49-4.92,1.97-7.64l-29.09-155.31ZM103.98,217.97c0,4.51-3.66,8.17-8.17,8.17h-13.15c-4.51,0-8.17-3.66-8.17-8.17v-14.23c0-4.51,3.66-8.17,8.17-8.17h13.15c4.51,0,8.17,3.66,8.17,8.17v14.23Z"/>
  <path class="cls-1" d="M838.53,0h-141.87c-11.39,0-20.65,9.27-20.65,20.66v141.83c0,11.4,9.27,20.66,20.65,20.66h40.36c11.39,0,20.65-9.27,20.65-20.66v-83.34c0-5.35,4.34-9.69,9.69-9.69h16.47c3.25,0,5.9,2.65,5.9,5.9v5.95c0,11.37,9.25,20.64,20.62,20.65l28.14.05h.03c5.51,0,10.7-2.15,14.61-6.04,3.9-3.91,6.06-9.1,6.06-14.62V20.63c-.02-11.37-9.29-20.63-20.66-20.63Z"/>
  <path class="cls-1" d="M767.61,327.67c-51.81,0-93.96,42.15-93.96,93.96s42.15,93.96,93.96,93.96,93.96-42.15,93.96-93.96-42.15-93.96-93.96-93.96ZM782.34,431.14c0,4.5-3.66,8.16-8.17,8.16h-13.15c-4.51,0-8.17-3.66-8.17-8.16v-19.01c0-4.51,3.66-8.17,8.17-8.17h13.15c4.51,0,8.17,3.66,8.17,8.17v19.01Z"/>
  <path class="cls-1" d="M767.62,691.66c3.84,0,7.46,1.5,10.19,4.22l30.19,30.2c4,3.97,10.46,3.97,14.42,0l36.03-36.03c3.97-3.97,3.97-10.44,0-14.42l-30.2-30.19c-2.72-2.72-4.22-6.34-4.22-10.2s1.5-7.46,4.22-10.19l30.2-30.19c3.97-3.98,3.97-10.45,0-14.42l-36.03-36.03c-3.83-3.83-10.56-3.85-14.42,0l-30.19,30.2c-5.45,5.45-14.94,5.45-20.38,0l-30.19-30.2c-3.87-3.87-10.59-3.85-14.42,0l-36.03,36.03c-3.97,3.97-3.97,10.45,0,14.42l30.2,30.19c2.72,2.72,4.22,6.34,4.22,10.19s-1.5,7.47-4.22,10.2l-30.2,30.19c-1.93,1.93-2.99,4.48-2.99,7.21s1.06,5.29,2.99,7.22l36.03,36.03c4,3.97,10.46,3.97,14.42,0l30.19-30.2c2.72-2.72,6.34-4.22,10.2-4.22Z"/>
</svg>