<?xml version="1.0" encoding="UTF-8"?>
<svg id="Layer_1" data-name="Layer 1" xmlns="http://www.w3.org/2000/svg" viewBox="0 0 937.34 189.07">
  <defs>
    <style>
      .cls-1 {
        fill: none;
      }

      .cls-2 {
        font-family: Arial-BoldMT, Arial;
        font-size: 65px;
        font-weight: 700;
      }

      .cls-2, .cls-3 {
        fill: #131313;
      }
    </style>
  </defs>
  <rect class="cls-1" x="-5.67" y="-5.49" width="294.95" height="200.28"/>
  <path class="cls-3" d="M0,0v189.07h283.6V0H0ZM70.02,91.73l7.49.02,2.29-7.17,2.29,7.16h7.49l-6.07,4.37,2.27,7.06-5.98-4.37-5.98,4.37,2.28-7.06-6.08-4.37ZM94.1,134.18l-5.98-4.38-5.98,4.38,2.28-7.06-6.07-4.37h7.49s2.29-7.16,2.29-7.16l2.29,7.16h7.49l-6.07,4.37,2.28,7.06ZM91.82,65.16l2.28,7.06-5.98-4.37-5.98,4.37,2.28-7.06-6.07-4.37h7.49s2.29-7.16,2.29-7.16l2.29,7.16h7.49l-6.07,4.37ZM108.48,38.09l2.29-7.16,2.29,7.16h7.49l-6.08,4.37,2.27,7.06-5.98-4.37-5.98,4.37,2.27-7.06-6.07-4.37h7.49ZM116.8,156.88l-5.98-4.37-5.98,4.37,2.27-7.06-6.07-4.37h7.49s2.29-7.15,2.29-7.15l2.29,7.15h7.49l-6.07,4.37,2.27,7.06ZM139.45,29.77l2.29-7.16,2.29,7.15h7.49l-6.08,4.37,2.28,7.06-5.98-4.37-5.98,4.37,2.28-7.06-6.07-4.37h7.49ZM147.73,165.11l-5.98-4.37-5.98,4.37,2.27-7.06-6.07-4.37h7.49s2.29-7.16,2.29-7.16l2.29,7.16h7.49l-6.08,4.37,2.28,7.06ZM178.66,156.88l-5.98-4.37-5.98,4.37,2.27-7.06-6.07-4.37h7.48s2.3-7.15,2.3-7.15l2.29,7.15h7.49l-6.08,4.37,2.28,7.06ZM176.48,42.46l2.27,7.06-5.98-4.38-5.99,4.38,2.27-7.06-6.07-4.38,7.49.02,2.29-7.16,2.29,7.15h7.5l-6.08,4.38ZM193.09,60.72l2.3-7.16,2.3,7.16h7.48l-6.08,4.36,2.28,7.06-5.98-4.37-5.98,4.37,2.28-7.06-6.08-4.36h7.48ZM201.37,134.18l-5.98-4.38-5.98,4.38,2.28-7.06-6.08-4.37h7.48s2.3-7.16,2.3-7.16l2.3,7.16h7.48l-6.08,4.37,2.28,7.06ZM209.59,103.07l-5.98-4.38-5.98,4.38,2.27-7.06-6.08-4.37h7.49s2.29-7.16,2.29-7.16l2.3,7.16h7.49l-6.08,4.37,2.27,7.06Z"/>
  <text class="cls-2" transform="translate(319.84 71.17)"><tspan x="0" y="0">Co-funded by</tspan><tspan x="0" y="78">the European Union</tspan></text>
</svg>