<?xml version="1.0" encoding="UTF-8"?>
<svg id="Layer_1" data-name="Layer 1" xmlns="http://www.w3.org/2000/svg" viewBox="0 0 927 257.25">
  <path d="M163.37,127.13l-.74,2.57c.31,1.58,4.9,1.3,6.39,1.19,3.98-.3,9.46-.98,13.44-1.55,2.32-.33,6.92-2.77,8.95-2.17,1.7.87,1.28,4.54,3.15,5.1,2.83.84,9.14-.18,12.29-.32l4.47,7.53c1.44.75,3.7.2,5.49.51,4.11.7,11.63,4.19,14.78,6.93,6.89,5.99,11.17,15.52,10.44,24.66-.56,6.91-.55,10.17-3.81,16.38-1.57,2.99-4.23,7.22-6.64,9.84-4.81,5.23-14.44,8.57-20.99,11.21-.81.58-2.98,5.79-3.4,7.08-.4,1.21-.16,2.33-.43,3.31-.48,1.73-5.04,1.84-6.69,2.3-3.85,1.09-7.93,2.44-11.71,3.27-3.06.68-9.42-.31-11.11,3.12-.74,1.51-.17,3.57-2.37,4.42-6.5-1.67-13.27-1.89-19.94-2.42-1.25-.1-2.67-.89-3.92-.93-2.62-.07-6.13.91-9,.41-2.81.4-2.68,4.73-5.24,5.98l-22.09-22.82c-2.19-1.27-3.37,1.38-4.89,2.64-3.7-5.22-7.97-9.95-12.39-14.58-1.07-1.13-1.36-1.47-2.59-2.59-1.51-1.37-2.48-3.47-4.88-3.02-1.2,7.29,6.94,10.8,9.67,15.45.59,1.01,1.75,3.57,2.47,4.97.94,1.83,1.77,3.72,2.76,5.53v1.21c-1.86,3.37-4.06,6.58-5.73,10.04-3.17,6.58-4.87,16.2-10.72,20.71-2.71,2.09-4.33,2.27-7.78,1.88-4.25-.48-7.48-3.06-8.49-7.23-.26-1.07-.97-4.9-.97-5.82,0-7.21,4.94-14.46,10.17-19.08,3.84-3.39,7.69-3.01,4.27-9.48-1.99-3.77-6.18-8.26-7.3-12.16-.66-2.31.18-5.03-.7-6.78-.68-1.35-7.21-5.36-9.01-6.71-.85-.64-1.82-2.48-2.93-2.23-3,3.68-9.49,6.22-12.45,9.3-1.5,1.56-2.37,4.31-3.71,6.02s-5.24,4.02-5.65,4.83c-1.56,3.08.3,7.75-5.88,8.17l-2.72-4.41-3.35.8c-4.72-1.44-1.6-5.66-1.14-9.02l-4.76.67-2.65-2.65c-.36-6.29,6.17-7.04,10.41-9.62.52-1.78-4.51-2.31-3.69-5.15,1.44-4.99,11.51-1.46,13.9,1.74l3.66-2.24c1.79.15,3.27,1.27,5.13.7,1-.31,6.59-5.03,6.4-6.14-.15-.92-5.62-7.71-6.27-7.76-2.23.29-4.74,1.73-6.81,2-2.25.3-5.4-.44-7.36.14-1.04.31-2.43,2.7-3.86,2.69-.68,0-1.52-1.08-2.35-1.18-.73-.09-1.5.6-2.21.61-.96,0-1.74-.46-2.6-.36-3.38.38-6.62,6.52-10.81,6.41-1.48-.27-3.03-1.74-2.57-3.32.74-.8,5.26-5.68,4.44-6.45-2.87-.59-5.72,2.42-8.26,1.14-1.46-.9-1.1-2.18-1.35-3.64,2.04-3.62,6.91-2.73,9.61-5.35l-7.53-.71c-4.74-2.08-1.01-4.82,2.27-6.03,2.55-.94,6.76-.72,8.27-1.47,2.67-1.33.64-3.41.83-4.41.1-.52,2.05-2.43,2.64-2.6,1.76-.53,4.42.3,5.56,1.73,1.51,1.89,2.19,9.23,3.31,9.29,2.38-1.81,3.93.53,6.03.84,2.28.33,4.37-.69,6.34,0,1.65-1.54-2.47-8.3-3.18-10.63-.59-1.93-1.21-3.85-.87-5.84-1.29-.51-3.14-2.17-4.16-2.57-.61-.23-1.24.29-1.74.16-6.26-1.56-15.62-13.65-16.91-19.78-.28-1.36.45-2.18.41-2.88-.03-.46-1.06-1.09-1.25-2.2-.75-4.28,1.56-12.45,3.68-16.34-1.53-3.75-4.82-11.19-4.4-15.04s3.87-8.65,7.46-10.57c3.25.2,6.72-1.14,9.76.44,0-.85.07-1.72-.04-2.58-1.22-9.6-5.83-20.3-6.73-29.93-.65-7.01-.47-20.09,1.88-26.59.35-.98,2.88-6.5,4.14-5.22-.22,2.01.32,4.44.01,6.36-.41,2.5-1.34,5.37-1.47,8.25-.6,13.22,2.97,29.16,7.81,41.49.61,1.54,4.03,8.95,5.26,8.95,3.23-2.66,1.61-8.24,1.91-12.3.86-11.57,3.97-27.47,7.65-38.04,2.74-7.89,6.38-17.76,13.65-22.22l1.88,1.14c-1.66,3.8-3.63,7.49-5.07,11.39-2.19,5.92-4.04,12.67-4.67,18.47-.82,7.69-3.86,15.01-4.46,23.28-.11,1.57-.53,8.51,1.09,8.56,9.61-6.58,17.46,3.52,16.97,12.99l4.79,5.7c1.64.49,3.76-5.39,4.54-6.66,22.22-36.4,74.94-58.6,116.13-62.09,1.83.57,7.47-.46,8.62.31.78.52.78,1.44.76,2.28-.01.98-2.58,7.46-3.21,8.8-1.16,2.46-3.21,5.09-4.47,7.5-4.43,8.45-8.61,16.99-14.09,24.82,1.14,1.67,1.24.59,2.01.52,17.14-1.52,33.63.69,50.46,4.69l2.08,1.48c-1.01,3.24-1.61,6.45-3.02,9.58-12.06,26.81-54.83,38.67-80.75,45.81-3.24.89-11.24,2.26-13.51,3.72-.9.57-.82,1.29-.74,2.25,1.52,2.29,3.22.52,4.9.41,4.66-.3,9.24.47,13.83-.78ZM88.43,91.61c-.45,3.68,0,8.81,0,12.71,0,1.32,5.14,1.89,5.99,0-2.38-2.34-3.42-5.3-2.99-8.6,1.06-1.24,3.64,3.88,4.1,4.55.65.95-.04,1.85,1.9,1.43,1.13-3.05-1.92-5.11-2.25-7.1-.36-2.12.26-4.88,0-7.11h2.25c.65.71-1.31,6.94,1.5,7.48.82-2.33-.41-4.65,0-7.12.21-1.29,1.52-1.88,1.51-2.95-.01-1.78-1.31-5.54-1.47-7.54-.43-5.42-.61-10.18,6.29-7.83l.43-.34c1.47-1.04-.36-5.08,2.97-6.76,3.58-1.81,6.07,1.35,5.26,4.87,2.58.37,3.27-2.54,6.01-1.14,2.54,1.3.6,5.82,2.61,6.37,2.59.71,2.98-2.44,3.38-4,.26-1.01,1.5-.33,2.24-.48.32.32-1,4.86-1.14,5.97-.17,1.37-.9,1.87.76,3l2.54-1.95c.04-2.17.74-8.24,2.72-9.26,1.56-.32,1.25.79,1.14,1.89-.2,1.98-.87,4.44-1.52,6.33,1.54.02,2.99.42,3.63-1.24,1.08-2.78.67-9.2,4.61-8.48l-1.5,7.1c0,.65,1.46.49,1.87.37,1.67-.5,2.91-7.9,4.14-9.71,3.25-.47.79,4.17.32,5.94-.36,1.35-.33,1.36.79,2.28,4.3-1.17,2.73-2.26,3.72-5.26.34-1.03,2.08-5.1,3.03-5.2,1.56,1.11.79,1.26.36,2.6-.34,1.08-.8,2-1.28,3l1.65,2.52c5.05-.81,3.62-5.6,6.02-8.86,1.79-.47,1.25,2.53,1.13,3.37-.22,1.51-1.76,1.8-1.51,3.35,5.19.25,4.01-5.82,7.12-8.22,2.62,1.74-.93,3.5-.38,5.6.15.55.76.86,1.49.79,5.27-.54,3.99-3.75,5.28-7.87l2.22-.02-.65,4.88c3.69,3.49,5.1-1.4,5.87-4.44l2.28-.44c.29,1.78-2.48,3.82-.37,5.23l8.22-11.96c1.67-5.71,5.94-11.2,8.79-16.68,1.2-2.3,5.08-9.35,5.12-11.38.07-3.2-3.97-1.17-5.61-1.07-3.58.22-4.27-.42-7.69.54-2.8.78-4.84.78-7.49,1.5-12.83,3.48-25.48,6.16-37.68,11.78-21.63,9.96-54.62,32.29-57.7,57.58ZM167.86,111.42l.72,1.93c1.19-.51,3.1.15,3.79-.09,23.03-8.13,49.82-14.51,63.1-37.21,1.5-2.57,4.61-7.85.82-9.35-4.59-1.82-9.99-1.99-14.8-2.43-31.2-2.87-54.33,2.8-83.37,12.6-.86.29-1.92.02-2.7.3-1.31.46-6.98,2.35-6.51,3.95,1.29,1.22,2.52,2.15,2.24,4.13.43.64,4.83-2.35,6.38.73.91,1.82.62,4.43-1.13,5.62,1.12,1.74,1.82-.08,3.38,1.07.5.37,1.6,1.49,1.76,2.02.21,8.39-8.33,12.13-14.09,16.39-1.52,1.13-4.21,2.79-5.28,3.7-.68.58-3.11,4.43-2.95,5.14l5.57,7.93c2.67-2.08-1.62-5.88,1.5-8.22,1.93,1.43.89,3.69,1.12,5.6.11.91,2.72.71,3.02-1.47.26-1.9-.84-4.23,1.11-5.63l1.12,4.86c.11.91,2.72.72,3.02-1.48.2-1.51-.62-3.03,1.11-4.13,1.71,1.2.56,5.35,3.74,4.48,1.79-.49-.12-4.75,1.13-5.98,3.3-.46,1.26,5.52,4.87,4.48,1.94-.56.41-2.49.38-3.4-.04-1.17,1.19-1.81,1.87-2.58,1.68,1.16,1.15,2.24.37,3.73l2.52.68c1.83-.95,2.22-2.47,1.98-4.42h2.23s1.14,2.99,1.14,2.99l3-5.22c1.88,1.18,1.18,3.48,3.75,3,.84-.16,1.4-.42,1.92-1.1,1.09-1.42,0-3.19,2.2-2.66ZM110.91,75.53c-.77-.87,2.52-9.59-.38-10.47-2.57-.78-2.5,5.17-2.65,6.32-.3,2.17-1.42,5.59.18,7.75.42.57,2.64.44,2.1,2.38-3.51.55-5.11-2.04-5.83-5.02-.41-1.69.44-3.57-1.29-4.7l-2.56,1.1c.71,3.7,3.36,8.58,3.51,12.13.07,1.63-1.54,3.22-1.22,4.94.44,2.44,2.77,3.44,4.8,4.24l.34-2.58c.9-1.58,1.84-.31,3-.69,3.14-1.01,12.1-10.46,12.74-13.53.13-.61.25-2.64-.39-2.63-1.03.29-2.47.63-3.34,1.15-.7.42-3.14,3.99-3.77,1.47-.3-1.21,2.18-4.39,2.67-6.32.25-.98.28-1.97-.8-2.28-1.67-.48-4.11,4.41-4.99,5.49-.66.81-.74,1.55-2.12,1.24ZM58.45,71.79c-1.56-2.11-3.61,5.51-3.7,6.4-.62,6.11,2.33,9.28,8.55,8.53,4.43-.54,10.7-7.8,9.37-12.28-.15-.52-.7-1.08-1.47-.79-1.5.55-2.7,2.14-4.25,2.5-3.43.79-7.7-.51-8.49-4.35ZM50.96,77.77c-.39-.42-4.71,1.9-5.49,2.37-11.73,7-22.22,22.16-21.93,36.15,0,.4,1.45,7.47,1.6,7.84,3.21,7.71,10.32,12.96,18.13,15.53,14.03,4.63,23.66.35,32-11.09,4.58-6.28,9.8-17.19,8.66-24.99-.47-3.23-2.39-6.62-3.89-9.59-.61-1.21-.75-2.61-1.45-3.79s-5.47-6.25-6.6-4.92c-2.8,6.53-10.55,9.03-16.51,4.79-4.07-2.9-4.92-7.57-4.53-12.31ZM26.23,79.27c-.9-.99-4.94,3.69-5.15,5.01-.16.97.43,1.74.45,2.71.01.54-.62,1.23-.46,2.22.25,1.45,2.3,3.83,2.16,5.76,1.38.31,1.46-.43,2.12-1.24,1.31-1.61,2.04-3.8,3.86-5.12v-1.11c-4.37-.98-4.29-4.55-2.99-8.23ZM119.9,87.49c2.66.61,3.27-1.95,4.15-3.71.55-1.1,1.86-.81-.03-2.27-1.47,1.88-4.53,3.16-4.12,5.98ZM127.4,92.73c-.72-3.3,2.75-4.88,1.54-7.86-1.61-3.99-3.9,0-4.41,2.39s-.24,6.36,1.01,8.44c1.04,1.73,3.44,2.22,2.6,5.26-1.67.39-1.68-.93-2.39-1.73s-3.01-3.03-3.24-3.49c-.7-1.4.21-4.71-1.49-5.25-2.32-.73-1.76,3.87-1.9,4.83s-.67,1.88-.75,3.01c-.44,6.02,4.58,6.97,7.99,10.8.56.12,2.9-1.11,3.55-1.54,2.26-1.49,6.79-5.95,8.32-8.15,1.07-1.54,2.07-4.52-.71-4.48-2.29.03-3.44,3-5.63,3.02l3.74-11.21c-3.44-.65-4.69,2.14-6.34,4.55-.65.94.04,1.84-1.9,1.43ZM106.58,109.72c.42.36,1.58.3,2.49.91.82.55,3.3,3.77,3.71,3.77,1.52-1.43,3.6-3.28,3.38-5.55-.41-4.1-1.53-9.88.79-13.53l-1.17-4.85c-.63,1.11-2.41,1.42-3,2.23-.92,1.27-.81,4.45-3.12,5.12-1.02.3-2.13-.06-3.26.48-1.98.95-2.01,7.41-2.26,9.72l.06.36c2.49-.55,1.96.95,2.38,1.32ZM103.41,96.47c-1.54-.45-2.01,1.23-2.56,2.3-1.18,2.3-6,11.51-6.33,13.15-.52,2.58,2.12,3.44,3.67,1.4.83-1.08,1.02-2.83,2.04-3.95l3.17-12.91ZM92.92,107.69l-5.67,1.45c-.94,5.52-2.24,11.06-4.95,16-2.19,3.99-7.99,11.05-11.48,13.97-.98.82-4.7,2.7-4.87,3.39,2.58,5.35,5.07,10.78,7.93,15.99,5.37,9.79,10.19,16.6,18.67,24,.76.66,4.75,3.78,5.16,3.68,2.08-1.96,8.31-5.08,8.72-7.79s-1.07-5.36-.85-8.15c-.29-1.02-4.48-2.75-5.05-4.68-1.15-3.9.61-6.67,3.66-8.84,4.54-3.23,15.21-2.99,17.19,2.99.34,1.03-.46,1.32,1.52,1.09-.72-2.45,1.53-4.66,1.94-6.36s.48-10.08.34-11.99c-.36-4.95-3.26-10.83-5.7-15.25-.4-.72-2.5-3.78-2.95-3.78-3.99,3.8-6.49,8.64-9.34,13.1-3.94,1.37-9.18-4.88-7.94-8.66.93-2.85,2.66-2.29,4.14-3.35s5.1-3.98,5.91-5.32c.36-.6.87-1.3.76-2.01-.31-2.03-6.81-8.38-8.11-6.46.27,2.1-1.61,3.17-2.13,4.99-.45,1.56.18,3.93-2.12,4.61-3.48,1.02-5.5-2.57-7.52-4.76l-.19-4.39c.37-1.33,3.47-1.35,2.95-3.47ZM120.65,110.68c-2.07-.26-1.54-.18-2.41.95-3.98,5.14-6.29,9.5-11.44,14.01-2.37,2.08-4.04,1.51-.75,5.23.88.26,3.11-2.25,3.76-2.97,2.92-3.24,6.67-7.7,8.74-11.47.52-.94,2.79-5.06,2.1-5.75ZM140.14,130.12c-.83-.05-1.64-.02-2.47.15-1.42.3-8.43,2.84-9.17,3.56-.39.38-.83.7-.99,1.26-1.18,4.04.51,12.93-.14,17.81-.33,2.48-1.93,5.25-2.65,7.5-.21.64-.06,1.68-.47,2.82-1.09,2.98-5.05,9.53-4.27,12.06.59,1.92,7.89,3.83,9.95,4.1,2.84-1.59,2.82-4.93,3.8-7.42,5.01-12.67,6.34-22.5,6.39-36.28,0-1.74.56-3.58,0-5.57ZM151.38,202.66l5.83-15.5c4.18-11.5,3.41-22.21,3.89-34.26.26-6.57,1.15-10.17.06-17.21-.31-2.02.85-4.47-1.89-4.85-1.79-.25-13.9-.16-14.67.35l-.63.86c-.43,4.35.32,9.04-.12,13.34-.87,8.45-3.4,20.31-6.12,28.29-.3.88-.67,1.73-1.32,2.41.97,1.61,2.55.84,3.98,1.26,4.63,1.35,8.89,12.26,9.48,16.72.31,2.32-.09,5.04.03,7.46.07,1.46-.09,1.17,1.5,1.12ZM175.36,227.34c-.24-1.1.3-1.75.74-2.63,9.01-18.19,16.07-33.03,18.72-53.12.28-2.12,1.95-6.56,2.02-7.42.19-2.43-1.51-14.94-2.14-17.83-1.02-4.64-4.25-9.39-4.44-14.26l-1.08-1.18c-1.2.3-3.49.08-4.44.28-4.79,1.01-9.76,1.56-14.37,2.55-5.18,1.11-6.13-1.32-5.52,6.51,1.67,21.47-.51,43.74-10.9,63.1-1.1,2.05-3.35,4.27-4.23,6.25s-.9,4.46-1.74,6.49c-.9,2.19-4.83,6.08-4.86,7.88-.02,1.55,1.72,2.65,2.64,1.12l6.75-12.7c1.48,1.07,1.14,1.51.79,3.02-.45,1.91-4.4,9.32-3.41,10.43,1.35.27,1.84-.67,2.58-1.54,2.61-3.08,3.01-7.71,6.04-10.42,1.58,1.15,1,1.38.57,2.8-.77,2.55-3.47,6.68-3.19,8.78s3.75-1.36,4.39-2.35c1.22-1.88,1.27-3.61,2.03-5.45.37-.91,1.73-4.18,2.94-3.79,1.38.45,1.13,1.88.79,3.02-.48,1.61-4.28,8.1-4.16,8.56,1.74,2.2,3.18,1.01,4.39-.85,1.04-1.59,4.98-10.68,5.73-10.73,1.64,1.15.89,1.44.57,2.81-.73,3.18-2.79,6.8-4.69,9.52,1.25,2,2.79.73,3.77-.72,2.38-3.52,1.4-8.14,5.59-10.12,1.03.89,1.26.91.8,2.28-.9,2.66-3.88,6.31-4.19,8.55-.2,1.47.31,1.2,1.51,1.14ZM201.59,219.11c1.57.27,1.81-.66,2.29-1.82,1.22-2.95,1.98-6.62,3.13-9.59,2.03-5.24,4.01-8.92,5.48-14.72,3.91-15.35,2.45-32.31-3-47.19-1.23-3.37-3.33-6.99-4.52-10.45-.69-1.05-6.74-.97-8.28-.75-3.31.47-.93,2.94-.3,4.89,8.5,26.23.66,42.09-8.7,66.14-.44,1.12-.16,2.37-.49,3.25-1.83,4.86-4.62,9.21-7.34,13.61l1.88,1.15c3.15-.03,4.6-9.46,5.64-11.97,1.29.02,2.46-.66,2.22,1.1-.31,2.27-1.41,4-2.26,5.97-.28.66-1.31,2.26-.36,2.63,1.7.1,1.6-1.44,2.06-2.43.97-2.07,1.7-4.24,2.66-6.33.72-1.57.7-.97,2.4-.96.43.43-2.07,5.69-2.45,6.9-.24.75-1.13,2.36-.17,2.82,2.46-1.23,4.46-11.49,6-11.96l1.75,1.72c-.82,2.3-1.26,4.7-1.96,7.05-.34,1.15-1.63,1.12.21,2.44,2.22-2.88,2.54-6.76,3.38-10.08.62-2.43,3.25-2.8,2.99-.76-.18,1.47-2.6,8.95-2.25,9.35ZM85.99,179.66c-8.44-9.26-16.41-19.86-21.25-31.56-.43-1.05-1.28-2.3-1.74-3.45-3.92-1.36-7.94.74-11.69.45-2.62-.2-6.17-2.55-5.24,2.23,2.64,13.69,15.69,30.74,26.25,39.63,3.38,2.85,7.46,5.64,11.97,6,4.78.38,5.13-1.92,8.93-3.74.93-.45.39-1.09.44-1.86-2.36-1.65-4.37-3.57-6.38-5.61-.69-.7-.83-1.59-1.28-2.08ZM17.24,178.73c.87.92,4.1-3.13,4.86-3.74,4.02-3.23,5.32-1.32,8.61-2.62,3.65-1.44,5.54-5.03,4.43-8.89-.54-1.89-4.51.07-5.15-4.58-.48-3.44,1.21-6.31-2.7-8.55-.79-.18-2.29,1.24-2.33,1.81-.03.5.51,4.29.68,5.12.33,1.64,1.63,3.16,1.35,5.01-3.21.7-1.86-1.33-3.08-3.28-1.76-2.81-8.37-.55-11.16.3l1.19,2.21c2.88-1.47,8.74-.2,6.7,3.79-.82,1.61-6.61,2.55-8.64,2.97-.19,1.96-.02,1.2,1.11,1.51,2.66.72,1.67-.19,3.13-.63,3.18-.96,5.67,1.47,4.68,4.66-.31,1.01-4.31,2.37-3.67,4.93ZM49.42,162.32l-9,1.78-1.43,4.48c.54,2.75,9.39.1,11.23-.68l.77-1.5-1.58-4.08ZM112.76,163.29c-4.79.14-4.75,10.72-3.94,14.15.59,2.51,2.11,5.49,4.36,6.87,1.76,1.08,8.05,2.85,10.24,3.24,1.84.32,3.67.59,3.99-1.7.78-5.5-1.25-4.23-4.46-6.05-2.72-1.55-5.56-4.19-6.03-7.44-.59-4.04,2.08-9.25-4.15-9.06ZM146.88,213.13c-.28-1.71.65-3.2.78-4.84.49-6.25-1.35-22.8-5.67-27.3-.65-.68-1.73-1.14-2.6-1.51-.54.61,2.13,5.59,2.59,6.7,2.32,5.65,4.78,12.45,4.18,19.13-.23,2.6-1.52,3.93-.81,6.72.3,1.2-.33,1.28,1.54,1.11ZM131.89,212.38c-1.64,1.28,5.4,8.59,8.63,5.25,2.68-2.78,2.86-12.36,2.64-16.12-.29-4.92-1.95-11.66-3.95-16.25-.73-1.67-1.82-3.8-3.2-5.03l.44,4.1c-.16,3.99-1.24,5.59-4.07,7.98-2.51,2.13-.61,4.28,1.02,3.26,1.51-.95,2.48-3.82,3.74-.01-1.61,1.96-2.81,2.98-5.52,2.72l-.88.61-.33,3.78c2.6.75,3.74-1.55,5.73-2.13,4.12-1.22-.39,3.57-1.58,4.41-1.86,1.32-6.39,1.86-2.99,5.19l4.84-1.48c.25,1.56-.26,2.47-1.48,3.38l-3.01.36ZM61.17,181.02c-1.9,1.01-3.38,2.85-4.99,4.04-2.63,1.94-5.73,1.35-1.83,5.63.96.26,8.17-5.43,9-6.71s-1.23-3.17-2.18-2.95ZM131.89,189.2c.74-2.22.94-4.39.75-6.73l-2.26,5.6,1.51,1.13ZM112.65,202.87c-1.12,1.07-1.91,3.05-3.99,3.91l1.8,1.07c3.82-2.38,7.63-5.49,10.58-8.9,1.26-1.46,4.72-5.89,5.28-7.45.36-.99.55-1.19-.4-1.94l-13.73-2.75-4.65-3.63c-4.77,2.03-8.25,6.8-13.11,8.28-.46,2.46,1.47,3.4,3.38,4.37,1.69-.68,6.45-7.7,7.48-7.37,3.54,1.11-2.7,6.77-3.75,8.22-.61.83-1.49,1.18-1.11,2.62.43,1.66,2.08.58,2.97-.03,2.62-1.78,4.94-4.07,7.15-6.32,1.03.89,1.26.91.8,2.28-.77,2.28-6.82,6.46-6.42,7.8.23.77,1.23,1.37,2.25.76,3.06-1.82,5.3-4.7,7.87-7.11,4.81,1.78-.73,4.61-2.38,6.19ZM38.97,203.41l-1.51,6.37c-.11.95,1.01,2.12,1.88,1.85.95-.29,1.98-6.48,3.03-8.2,1.59-2.61,7.09-4.33,7.66-8.63l-3.56-6.77c-1.01-.6-2.32.68-3.98.33-2.08-.44-4.9-3.84-8.01-2.9-.9.83,2.77,3.72,3.35,4.51.93,1.27,1.19,3.07,2.64,4.09-2.13,2.95-3.27-1.26-4.97-1.79-3.04-.93-11.97,5.52-10.01,7.39,4.07,1,4.94-3.25,8.99-2.24.64,2.73-1.51,4-2.57,6.03-.75,1.44-1.84,3.36-.05,4.43,3.2-.91,2.85-5.54,7.11-4.48ZM95.17,212.38c.42-2.81-2.62-4.04-4.1-6-2.14-2.85-3.07-6.28-3.74-9.73l-6.41-1.11c-1.75,1.2-.23,4.82.39,6.38.87,2.2,6.43,10.53,8.35,11.11s3.67-.24,5.51-.64ZM127.38,206.38l.39-11.2-11.6,14.52,1.95,1.87,1.28-.02c3.49-1.39,3.84-5.91,7.97-5.17ZM127.4,207.89c-1.83-.45-1.21.42-1.64.98-1.34,1.7-2.89,3.09-4.29,4.73,1.32,5.43,4.23,3.12,6.59-.2l-.65-5.51ZM98.17,213.88c-2.31.64-3.94,1.58-6.38,2.23-.84.23-3.16.23-2.61,1.87,1.18,3.56,8.93-1.24,8.99-4.11ZM132.63,222.08c.51-2.52-.86-3.77-2.68-5.19l-4.05,3.34c2.09,2.62,3.71,2.67,6.73,1.85ZM83.93,234.07c-.68.66-5.4-3.84-7.84.03-.25.4-1.63,3.13-1.64,3.31-.04.6.53,1.83.52,2.99,0,1.47-.55,7.52-.4,7.88.17.43,1.93,2.86,2.32,2.95,1.25-.3,2.64-.69,3.7-1.42s4.88-5.44,5.92-6.8c4.66-6.1,6.41-11.49,9.85-17.84.65-1.21,4.26-5.65,4.06-6.41-.3-1.16-1.06-.97-2-.51-1.91.94-3.11,2.61-5.48,3.5-1.54.58-3.6.92-5.26,1.11.76,1.8,3.75,2.53,1.12,4.48-1.55-2.07-3-2.6-5.62-2.24l3.74,3.37c.04,2.84-3.65.14-4.46-.06s-1.45.59-2.28.43c-.15,3.13,4.65,1.43,3.74,5.23ZM135.98,220.82l-3.32,5.34c.24,1.09,4.03,2.86,4.86,1.19l2.62-4.86-4.15-1.67ZM101.92,222.85l-3.34,3.03c-.39.63-1.62,2.44-1.16,2.95,1.15,1.29,1.61-1.01,1.9-1.43.94-1.37,2.47-2.86,2.59-4.55ZM80.94,253.51c7.08-1.35,10.42-7.35,13.13-13.44.41-.91.33-2.06.71-3.03.97-2.45,3.12-4.57,2.64-7.46l-8.64,14.93-7.84,9Z"/>
  <path d="M457.13,167.89c-.06.39-.87,2.74-1.11,3.38-5.24,13.89-32.76,12.83-36.36-2.26,2.95.3,6.54-.42,9.38-.01,1.51.22,2.39,1.98,4.09,2.65,6.68,2.64,16.85.25,15.01-8.62-16.72,12.03-35.2-6.5-26.11-24.19,3.9-7.59,13.01-10.66,20.87-7.59,1.94.76,3.3,2.28,5.25,2.62l1.2-2.92,7.79-.07v37.02ZM436.68,138.51c-6.82,1.24-9.72,9.21-6.43,15.07,4.44,7.91,16.94,6.04,18.48-3.05,1.28-7.58-4.4-13.41-12.05-12.02Z"/>
  <path d="M571.01,118.19l18.02,48.58-9.79-.32-4.15-9.32h-18.57s-4.28,9.58-4.28,9.58l-9.67.07,18.04-48.55,10.4-.02ZM559.8,148.07h11.99l-5.25-15.71c-.76-1.09-1.3.03-1.65.95-.73,1.97-5.72,14.13-5.09,14.75Z"/>
  <polygon points="308 118.16 308 127.13 290.76 127.13 290.76 136.1 308 136.1 308 145.08 290.76 145.08 290.76 157.79 308 157.79 308 166.76 281.77 166.76 281.77 118.16 308 118.16"/>
  <path d="M801.85,166.76h-8.99s0-2.99,0-2.99c-8.3,6-17.9,5.18-24.37-2.97-13-16.38,6.77-41.24,24-26.19l.37-3.74h8.99v35.9ZM790.42,140.78c-.43-.43-2.47-1.47-3.15-1.72-9.51-3.39-16.04,5.54-12.78,14.25,3.01,8.05,14.89,8.34,18.01,0,1.48-3.94,1-9.45-2.08-12.53Z"/>
  <path d="M667.71,151.81h-28.48c1.23,8.93,12.67,10.88,18.45,4.54l7.77,4.06c-5.36,7.13-15.9,9.13-23.97,5.98-15.06-5.88-14.9-29.28.75-35.15,14.1-5.29,27.56,5.85,25.48,20.57ZM658.72,144.33c.31-1.29-.5-1.49-1.12-2.24-5.5-6.64-14.64-5.38-18.36,2.24h19.48Z"/>
  <path d="M391.93,151.81h-28.48c1.23,8.93,12.67,10.88,18.45,4.54l7.77,4.06c-5.36,7.13-15.9,9.13-23.97,5.98-15.06-5.88-14.9-29.28.75-35.15,14.1-5.29,27.56,5.85,25.48,20.57ZM382.94,144.33c.31-1.29-.5-1.49-1.12-2.24-5.5-6.64-14.64-5.38-18.36,2.24h19.48Z"/>
  <path d="M921.75,151.81h-28.48c1.23,8.93,12.67,10.88,18.45,4.54l7.77,4.06c-5.25,6.48-11.77,7.92-19.88,7.13-9.37-.92-16.32-11.55-15.3-20.55,2.88-25.37,41.07-20.83,37.43,4.82ZM912.76,144.33c.31-1.29-.5-1.49-1.12-2.24-5.5-6.64-14.64-5.38-18.36,2.24h19.48Z"/>
  <path d="M518.58,151.81h-28.48c1.23,8.93,12.67,10.88,18.45,4.54l7.77,4.06c-8.08,9.97-24.73,10.09-32.11-.86-7.71-11.45-.42-28.44,13.73-29.46,13.22-.96,22.13,8.7,20.64,21.72ZM509.59,144.33c.31-1.29-.5-1.49-1.12-2.24-5.49-6.63-14.72-5.51-18.36,2.24h19.48Z"/>
  <path d="M347.72,166.76h-8.99v-22.06c0-.25-1.49-4.51-1.67-4.7-2.15-2.27-7.23-2.05-9.41,0-1.97,1.87-2.03,4.6-2.43,6.92-.13.76-.73,1.43-.73,1.51v18.32h-8.99v-35.9h8.99s.37,3.74.37,3.74c5.7-5.9,16.14-6.48,20.96.77.36.55,1.9,3.87,1.9,4.09v27.3Z"/>
  <path d="M757.64,166.76h-8.99v-22.06c0-.25-1.49-4.51-1.67-4.7-2.15-2.27-7.23-2.05-9.41,0-1.97,1.87-2.03,4.6-2.43,6.92-.13.76-.73,1.43-.73,1.51v18.32h-8.99v-35.9h8.99s.37,3.74.37,3.74c5.7-5.9,16.14-6.48,20.96.77.36.55,1.9,3.87,1.9,4.09v27.3Z"/>
  <polygon points="853.53 130.9 862.18 151.81 870.83 130.9 879.79 130.87 864.34 166.68 858.87 166.7 843.82 131.24 853.53 130.9"/>
  <polygon points="622 117.41 622 130.87 627.24 130.87 627.24 139.1 622 139.09 622 166.76 613 166.76 613 139.09 608.51 139.1 608.51 130.87 613 130.87 613 117.41 622 117.41"/>
  <polygon points="821.34 117.41 821.34 130.87 826.58 130.87 826.58 139.1 821.34 139.09 821.34 166.76 812.34 166.76 812.34 139.09 807.84 139.1 807.84 130.87 812.34 130.87 812.34 117.41 821.34 117.41"/>
  <path d="M369.39,67.36l12.05,32.1-6.79-.33-2.64-6.44-13.02.06-2.24,6.36-6.78.34,12.02-32.13,7.41.03ZM369.45,86.75l-3.37-9.72c-1.29.52-.41,2.01-.53,2.12-.24.22-1.01-.11-1.34.61-.37.8-2.51,6.73-2.25,6.99h7.49Z"/>
  <path d="M668.99,66.71c7.07-1.2,13.39,1.04,18.2,6.2l-4.19,4.08c-.82.18-4.18-2.82-5.52-3.36-8.48-3.43-17.17,2.57-15.6,11.84,1.29,7.61,9.47,10.38,16.12,7.42,1.21-.54,4.22-3.38,5.06-3.16l3.37,4.17c.45,1.97-7.59,5.82-9.5,6.14-7.14,1.21-14.24-.58-18.55-6.6-7.12-9.95-1.59-24.67,10.62-26.74Z"/>
  <rect x="594.27" y="117.41" width="8.99" height="49.36"/>
  <path d="M808.6,99.46l-6.32.04-.79-1.54c-9.77,6.68-20.41-2.75-18.03-13.49,1.61-7.24,8.47-11.73,15.61-8.77.93.38,1.35,1.43,2.41,1.34l.8-1.55,6.32.04v23.93ZM794.12,80.9c-7.27,1.62-5.32,16.05,4.25,13.21,4.85-1.44,4.85-11.8,0-13.24-1.13-.33-3.08-.24-4.25.03Z"/>
  <path d="M520.08,99.46l-6.32.04-.79-1.54c-9.77,6.68-20.41-2.75-18.03-13.49,1.61-7.24,8.47-11.73,15.61-8.77.93.38,1.35,1.43,2.41,1.34l.8-1.55,6.32.04v23.93ZM505.6,80.9c-7.27,1.62-5.32,16.05,4.25,13.21,4.85-1.44,4.85-11.8,0-13.24-1.13-.33-3.08-.24-4.25.03Z"/>
  <path d="M638.48,89.74h-18.73c-.4,3.45,4.04,5.56,6.95,5.11,3.96-.61,3.72-3.28,8.77-.97.92.42,1.84-.04,1.51,1.46-5.93,7.08-18.57,6.56-22.64-2.08-4.31-9.16,2.66-18.97,12.55-18.51,8.05.38,12.61,7.27,11.59,14.99ZM619.75,84.5h12.74c-1.78-4.58-8.16-5.96-11.62-2.25-.69.74-1.39,1.03-1.12,2.25Z"/>
  <path d="M849.81,89.74h-18.73c-.44,2.76,2.68,4.75,5.04,5.11,2.68.41,4.87-1.39,7.32-2.12l4.87,2.62c-5.93,7.08-18.57,6.56-22.64-2.08-4.31-9.16,2.66-18.97,12.55-18.51,8.05.38,12.61,7.27,11.59,14.99ZM831.08,84.5h12.74c-1.78-4.58-8.16-5.96-11.62-2.25-.69.74-1.39,1.03-1.12,2.25Z"/>
  <path d="M673.7,130.87h7.5s0,3.74,0,3.74c3.2-2.82,6.95-6.84,11.23-3.33l-2.24,7.07c-.3.3-2.9-1.71-5.24.38-.53.47-2.26,4.13-2.26,4.48v23.56h-8.99v-35.9Z"/>
  <path d="M397.93,130.87h7.5s0,3.74,0,3.74c3.2-2.82,6.95-6.84,11.23-3.33l-2.24,7.07c-.3.3-2.9-1.71-5.24.38-.53.47-2.26,4.13-2.26,4.48v23.56h-8.99v-35.9Z"/>
  <path d="M567.07,74.94c17.76-3.06,21.09,23.1,4.31,25.24-8.29,1.06-15.48-6.15-14.41-14.38.64-4.93,5.15-10,10.1-10.86ZM574.62,92.57c.52-.55,1.74-4.51,1.68-5.4-.16-2.32-1.81-5.72-4.27-6.26-12.07-2.67-10.88,16.41,0,13.19.19-.06,2.49-1.41,2.59-1.52Z"/>
  <path d="M435.18,74.94c17.76-3.06,21.09,23.1,4.31,25.24-8.29,1.06-15.48-6.15-14.41-14.38.64-4.93,5.15-10,10.1-10.86ZM442.73,92.57c.52-.55,1.74-4.51,1.68-5.4-.16-2.32-1.81-5.72-4.27-6.26-12.07-2.67-10.88,16.41,0,13.19.19-.06,2.49-1.41,2.59-1.52Z"/>
  <path d="M609.26,99.46h-6.74v-15.33c0-.17-1.22-2.88-1.45-3.04-2.27-.95-5.28-.33-6.41,1.92-.19.37-1.13,3.18-1.13,3.36v13.09h-6v-23.93h5.98s.39,2.24.39,2.24c3.35-3.72,9.69-4.17,13.14-.4.63.69,2.22,4.66,2.22,5.26v16.83Z"/>
  <rect x="465.37" y="130.87" width="8.99" height="35.9"/>
  <rect x="830.33" y="130.87" width="8.99" height="35.9"/>
  <path d="M749.39,75.53v13.83c0,.18.95,3.01,1.13,3.36.95,1.88,3.89,1.88,5.64,1.14.68-.34,2.23-3.27,2.23-3.75v-14.58h6v16.83c0,.2-1.3,3.16-1.59,3.64-3.39,5.64-14.32,5.78-17.79,0-.29-.48-1.59-3.44-1.59-3.64v-16.83h6Z"/>
  <path d="M697.69,75.53v13.83c0,.18.95,3.01,1.13,3.36.95,1.88,3.89,1.88,5.64,1.14.68-.34,2.23-3.27,2.23-3.75v-14.58h6v16.83c0,.2-1.3,3.16-1.59,3.64-3.39,5.64-14.32,5.78-17.79,0-.29-.48-1.59-3.44-1.59-3.64v-16.83h6Z"/>
  <path d="M478.86,80.76l-4.24,2.17c-3.17-2.21-5.71-2.49-9.57-2.21l-.55,1.39-1.77.07c-6.28,8.84,3.14,16.15,11.24,9.97l4.88,3.19c-3.78,5.5-13.38,6.54-18.71,2.97-13.73-9.19-1.53-28.67,13.67-22.61,1.01.4,6.3,4.09,5.05,5.06Z"/>
  <path d="M543.31,75.53l-9.73,17.59c-.17,1.42-.03,1.06,1.11,1.11,2.62.11,5.27-.08,7.88,0v5.24h-19.49l10.49-18.32-8.28-.71-.71-4.9h18.73Z"/>
  <path d="M394.89,91.28c-4.89-1.96-13.5-6.57-9.3-12.73,3.97-5.82,11.22-4.64,15.33.34l-4.11,4.11c-1.55-2.12-4.21-3.53-6.36-1.12,3,3.45,9.66,3.66,10.47,8.99,1.58,10.41-11.64,12.22-17.21,5.22l4.11-4.05c2.17,2.49,7.57,3.89,7.08-.76Z"/>
  <path d="M415.13,91.28c-4.89-1.96-13.5-6.57-9.3-12.73,3.97-5.82,11.22-4.64,15.33.34l-4.11,4.11c-1.55-2.12-4.21-3.53-6.36-1.12,3,3.45,9.66,3.66,10.47,8.99,1.57,10.35-11.76,12.14-17.21,5.22l4.11-4.05c2.17,2.49,7.57,3.89,7.08-.76Z"/>
  <polygon points="730.66 80.76 727.66 80.77 727.66 75.53 730.66 75.53 731.06 66.55 736.66 66.55 736.65 75.53 740.4 75.53 740.4 80.77 736.65 80.76 736.65 99.46 730.66 99.46 730.66 80.76"/>
  <path d="M820.59,99.46h-6.74v-32.53c1.43-1.74,5.31-1.74,6.74,0v32.53Z"/>
  <path d="M724.66,99.46h-6.74v-32.53c1.43-1.74,5.31-1.74,6.74,0v32.53Z"/>
  <path d="M768.88,75.53l5.57-.04.8,1.54c1.69-1.99,3.83-2.54,6.37-2.24l-1.11,5.28-4,.84c-.03.59-.88,1.57-.88,1.74v16.83h-6.74v-23.93Z"/>
  <rect x="546.31" y="75.53" width="6.74" height="23.93"/>
  <rect x="484.11" y="75.53" width="6.74" height="23.93"/>
  <path d="M715.67,145.08c-.13,1.52.62,8.23-1.12,8.23h-16.11v-8.23h17.24Z"/>
  <path d="M469.67,116.03c.4-.06.77-.18,1.17-.02,4.85,1.66,7.29,8.07,2.3,11.02-8.23,4.87-12.69-9.58-3.47-11Z"/>
  <path d="M834.63,116.03c.4-.06.77-.18,1.17-.02,4.85,1.66,7.29,8.07,2.3,11.02-8.23,4.87-12.69-9.58-3.47-11Z"/>
  <path d="M77.94,68.8c-2.2.4-1.17-.62-1.66-1.68-2.22-4.85-6.53-6.75-10.28-10l3.38-4.75c5.67,3.08,8.31,10.31,8.55,16.43Z"/>
  <path d="M14.98,78.52c-1.23.07-1.68.36-1.5-1.12.3-2.43,2.75-6.11,3.19-8.79,1.98-5.55,5.79-7.63,8.04-.98-3.66,3-8.16,6.23-9.73,10.9Z"/>
  <path d="M546.45,66.7c3.16-3.16,10.26,1.4,5.51,5.87-4.05,3.82-8.52-2.87-5.51-5.87Z"/>
  <path d="M484.25,66.7c3.16-3.16,10.26,1.4,5.51,5.87-4.05,3.82-8.52-2.87-5.51-5.87Z"/>
  <path d="M221.82,127.13c-2.08.34-1.26-.4-1.67-1.67-1.01-3.16-1.42-6.62-1.37-9.9.05-2.97,1.18-4.92,3.78-2.2.16.76-.73,1.3-.73,1.44v12.34Z"/>
  <path d="M239.06,136.1c-1.12-.95,5.35-4.98,5.81-5.42.74-.7,1.41-2.88,2.81-3.55l2.57,3.43-.69,1.43-10.5,4.1Z"/>
  <path d="M245.75,192.97c.84,3.3,3.72,6.13,6.04,8.57l-2.62,2.62c-.92.28-1.36-.55-1.72-1.27-.7-1.42-4.51-9.33-3.9-9.95l2.2.03Z"/>
  <path d="M256.29,167.51l.75,3.74-10.49-.75c-.18-1.88-.06-1.2,1.08-1.53,2.83-.8,5.78-.87,8.67-1.47Z"/>
  <path d="M228.56,210.14c.22,3.26,3.35,7.2,3.77,10.1.25,1.7-1.01.89-1.9,1.76-1.25.05-2.51-4.36-2.62-5.57-.11-1.3.54-2.32.5-2.97-.04-.58-3.29-3.61.24-3.33Z"/>
  <path d="M210.58,225.1c-1.11,3.85,3.56,10.37-2.62,9.5-2.63-.96.32-5.31.81-6.88.19-.62-1.14-2.82,1.82-2.62Z"/>
  <path d="M88.17,164.59l3.19,2.64c-.67,7.05-10.29-.28-3.19-2.64Z"/>
  <path d="M75.4,148.89c3.06-.92,3.3,3.9,1.41,4.41-2.67.71-4.81-3.38-1.41-4.41Z"/>
  <path d="M30,100.22l2.26.33c4.7,11.11,17.39,11.33,24.7,2.28,1.09-1.35,2.49-3.1,2.25-4.86-1.7.23-2.75-.61-3.75-1.88l1.12-1.86c2.64,1.87,5.82,1.58,8.86,1.31.57-.05,1.62-.9,2.01.56.69,2.55-2.49,2.45-2.91,3.82-.12,9.85.12,22.46-7.55,29.86-6.37,6.15-17.99,3.31-23.26-3.02-2.42-2.9-3.03-5.89-4.32-9.15-.3-.77-1.49-1.65-1.51-2.06-.02-.56,1.04-1.37,1.08-2.23.02-.56-.52-1.4-.51-2.23.06-4.01-.37-7.17,1.54-10.87ZM61.45,103.95c-.87-.94-5.27,3.99-5.66,5.19-.43,1.32-.83,6.77.79,6.76,6.09-2.17,4.91-6.46,4.87-11.96ZM30.73,107.69c-.4,3.16.07,4.84,2.62,6.72,2.72-2.32.54-6.36-2.62-6.72ZM35.97,111.43c-.62,4.34.66,5.91,4.83,6.72,1.58-.98,1.49-2.93.83-4.51l-5.65-2.21ZM53.21,111.43c-2.27.56-7.93,1.03-8.26,3.34-.43,2.99.13,4.47,3.36,4.12,4.77-.52,5.42-3.1,4.9-7.46ZM56.95,124.14c.47-1.64,1.43-3.37,2.24-4.88.56-1.04,1.19-.54-.36-1.84-.66,1.17-2.95,1.58-3.29,2.7-.42,1.38-.68,4.89,1.41,4.03ZM36.35,118.91c-3.38,3.62,1.22,7.88,4.5,9.71,1.08.03,2.38-6.62.41-7.88-1.25-.8-3.85.27-4.91-1.83ZM52.46,121.14c-2.47-.17-5.03.07-7.17,1.45-.43,1.55-.86,6.35.38,7.19,3.5,1.32,5.81-.83,7.28-3.75l-.5-4.89Z"/>
  <path d="M75.41,172.83c2.7-.8,5.01,1.91,3.66,4.42-2.42,3.09-4.36.78-5.56-2l1.9-2.41Z"/>
  <path d="M64.91,156.35c2.93-.86,4.75,4.11,1.32,5.12-2.93.86-4.75-4.11-1.32-5.12Z"/>
</svg>