<svg width="121" height="121" viewBox="0 0 121 121" fill="none" xmlns="http://www.w3.org/2000/svg">
<path d="M61.5 54.5C61.5 54.5 112.288 83 112 83.5C111.712 84 96.5 77.8529 84.5 71.5C72.5 65.1471 61.5 57 61.5 57V54.5Z" fill="#131313"/>
<path d="M59.5012 54.5C59.5012 54.5 8.7128 83 9.00122 83.5C9.28965 84 24.5012 77.8529 36.5012 71.5C48.5012 65.1471 59.5012 57 59.5012 57V54.5Z" fill="#131313"/>
<path d="M60.5 4.5C61 4.5 62 33 62 49.5C62 66 63 120.5 63 120.5H58C58 120.5 59 66 59 49.5C59 33 60 4.5 60.5 4.5Z" fill="#131313"/>
<path d="M64 56.5C64 58.433 62.433 60 60.5 60C58.567 60 57 58.433 57 56.5C57 54.567 58.567 53 60.5 53C62.433 53 64 54.567 64 56.5Z" fill="#131313"/>
<path d="M118 60.5C118 28.7436 92.2564 3 60.5 3C28.7436 3 3 28.7436 3 60.5C3 92.2564 28.7436 118 60.5 118V121C27.0868 121 0 93.9132 0 60.5C0 27.0868 27.0868 0 60.5 0C93.9132 0 121 27.0868 121 60.5C121 93.9132 93.9132 121 60.5 121V118C92.2564 118 118 92.2564 118 60.5Z" fill="#131313"/>
</svg>
