<svg width="181" height="77" viewBox="0 0 181 77" fill="none" xmlns="http://www.w3.org/2000/svg">
<g clip-path="url(#clip0_57_338)">
<path d="M0 57.5039H179.363" stroke="#131313" stroke-width="1.25"/>
<path d="M39.812 4.56012C43.2144 4.56012 46.4014 5.21588 48.7793 6.40525L50.1381 7.08162V1.80175L49.5435 1.56988C47.7149 0.8555 44.5361 0 39.7436 0C25.4482 0 15.8448 9.85013 15.8448 24.5044C15.8448 42.1964 27.8881 48.4717 38.2006 48.4717C43.9355 48.4717 47.7661 47.333 49.5386 46.6495L50.1381 46.42V41.3589L48.81 41.9717C46.2646 43.1446 42.7011 43.8442 39.2774 43.8442C27.8784 43.8442 21.0766 36.6377 21.0766 24.5728C21.0766 12.0405 28.081 4.56012 39.812 4.56012ZM1.14355 47.5601H6.43555V0.590875H1.14355V47.5601Z" fill="#131313"/>
<path d="M101.476 39.0074C102.153 39.0494 103.107 38.3263 103.122 38.3077C112.023 29.2745 119.274 24.729 132.654 22.5577V22.5362C132.944 22.4967 133.18 22.2915 133.18 22.0182C133.18 21.7334 132.929 21.5162 132.619 21.4893V21.4674C127.485 21.2418 118.876 22.7174 111.857 26.1929C104.846 29.667 101.411 33.6319 100.705 34.3038C100.461 34.5669 99.2646 35.6129 99.1645 36.6954C99.0473 37.9649 100.2 38.9268 101.476 39.0074Z" fill="#131313"/>
<path d="M67.6592 1.08496V19.9615H87.5826V1.08496H96.1832V48.2071H87.5826V27.4428H67.6592V48.2071H59.0596V1.08496H67.6592Z" fill="#131313"/>
<path d="M116.586 41.1436H136.442V48.2071H107.985V1.08496H135.392V8.14646H116.586V41.1436Z" fill="#131313"/>
<path d="M179.701 46.8066C177.677 47.7856 173.202 48.9052 167.47 48.9052C152.506 48.9052 143.42 39.5342 143.42 25.2041C143.42 9.68412 154.255 0.385742 168.659 0.385742C174.321 0.385742 178.302 1.50537 180.052 2.41412L178.234 9.26462C175.997 8.28762 172.854 7.44637 169.006 7.44637C159.427 7.44637 152.506 13.459 152.506 24.7851C152.506 35.1329 158.52 41.7041 168.937 41.7041C172.362 41.7041 175.997 41.0054 178.302 40.0254L179.701 46.8066Z" fill="#131313"/>
<path d="M1.04102 76.3701C1.4188 76.4223 2.01805 76.4744 2.79968 76.4744C4.23266 76.4744 5.22272 76.2138 5.82197 75.6537C6.27792 75.2368 6.57754 74.6506 6.57754 73.895C6.57754 72.5923 5.60051 71.9018 4.76677 71.7064V71.6674C5.67867 71.3417 6.25187 70.5991 6.25187 69.7393C6.25187 69.0489 5.96527 68.5278 5.50932 68.1891C4.97521 67.7462 4.24569 67.5508 3.11233 67.5508C2.3307 67.5508 1.53605 67.6289 1.04102 67.7462V76.3701ZM2.17438 68.5018C2.35676 68.4627 2.65638 68.4236 3.17746 68.4236C4.32385 68.4236 5.09245 68.8405 5.09245 69.8566C5.09245 70.7033 4.38899 71.3417 3.20352 71.3417H2.17438V68.5018ZM2.17438 72.1884H3.11233C4.34991 72.1884 5.37905 72.6965 5.37905 73.882C5.37905 75.1586 4.2978 75.5885 3.12536 75.5885C2.72151 75.5885 2.40886 75.5755 2.17438 75.5364V72.1884Z" fill="#131313"/>
<path d="M7.62012 76.3962H8.75348V72.5923H9.8217C10.8508 72.6314 11.3328 73.0873 11.5934 74.2988C11.8279 75.3931 12.0233 76.1357 12.1666 76.3962H13.339C13.1566 76.0575 12.9482 75.2107 12.6616 73.9862C12.4532 73.0743 12.0493 72.449 11.385 72.2145V72.1754C12.2969 71.8628 13.0264 71.0942 13.0264 69.9478C13.0264 69.2573 12.7658 68.6581 12.3359 68.2673C11.8018 67.7853 11.0072 67.5508 9.79565 67.5508C9.02705 67.5508 8.19331 67.6289 7.62012 67.7332V76.3962ZM8.75348 68.5278C8.94888 68.4757 9.32667 68.4366 9.87381 68.4366C11.0723 68.4366 11.893 68.9317 11.893 70.065C11.893 71.0681 11.1244 71.7325 9.91289 71.7325H8.75348V68.5278Z" fill="#131313"/>
<path d="M14.1855 67.6157V72.7875C14.1855 75.5232 15.5404 76.5393 17.3381 76.5393C19.2401 76.5393 20.66 75.445 20.66 72.7484V67.6157H19.5136V72.8266C19.5136 74.7546 18.6669 75.6144 17.3772 75.6144C16.2048 75.6144 15.3319 74.7806 15.3319 72.8266V67.6157H14.1855Z" fill="#131313"/>
<path d="M21.9102 75.9661C22.3791 76.2787 23.3041 76.5393 24.1508 76.5393C26.2221 76.5393 27.2122 75.3538 27.2122 73.999C27.2122 72.7093 26.4696 71.9928 24.9846 71.4196C23.773 70.9507 23.2389 70.5468 23.2389 69.7261C23.2389 69.1269 23.6949 68.4104 24.8934 68.4104C25.688 68.4104 26.2742 68.6579 26.5478 68.8272L26.8605 67.9023C26.4827 67.6808 25.8183 67.4724 24.9325 67.4724C23.2259 67.4724 22.0925 68.4885 22.0925 69.8564C22.0925 71.0809 22.9784 71.8365 24.4114 72.3576C25.5968 72.8005 26.0658 73.2825 26.0658 74.0902C26.0658 74.976 25.3884 75.5883 24.229 75.5883C23.4474 75.5883 22.7178 75.3408 22.2098 75.0151L21.9102 75.9661Z" fill="#131313"/>
<path d="M27.9551 75.9661C28.4241 76.2787 29.349 76.5393 30.1957 76.5393C32.2671 76.5393 33.2571 75.3538 33.2571 73.999C33.2571 72.7093 32.5146 71.9928 31.0295 71.4196C29.818 70.9507 29.2838 70.5468 29.2838 69.7261C29.2838 69.1269 29.7398 68.4104 30.9383 68.4104C31.7329 68.4104 32.3192 68.6579 32.5927 68.8272L32.9054 67.9023C32.5276 67.6808 31.8632 67.4724 30.9774 67.4724C29.2708 67.4724 28.1375 68.4885 28.1375 69.8564C28.1375 71.0809 29.0233 71.8365 30.4563 72.3576C31.6418 72.8005 32.1107 73.2825 32.1107 74.0902C32.1107 74.976 31.4333 75.5883 30.2739 75.5883C29.4923 75.5883 28.7628 75.3408 28.2547 75.0151L27.9551 75.9661Z" fill="#131313"/>
<path d="M38.9752 71.3415H35.5751V68.5667H39.1836V67.6157H34.4287V76.396H39.379V75.445H35.5751V72.2794H38.9752V71.3415Z" fill="#131313"/>
<path d="M40.499 76.396H45.3972V75.445H41.6454V67.6157H40.499V76.396Z" fill="#131313"/>
<path d="M45.9053 75.9661C46.3742 76.2787 47.2992 76.5393 48.1459 76.5393C50.2173 76.5393 51.2073 75.3538 51.2073 73.999C51.2073 72.7093 50.4648 71.9928 48.9797 71.4196C47.7682 70.9507 47.234 70.5468 47.234 69.7261C47.234 69.1269 47.69 68.4104 48.8885 68.4104C49.6831 68.4104 50.2694 68.6579 50.5429 68.8272L50.8556 67.9023C50.4778 67.6808 49.8134 67.4724 48.9276 67.4724C47.221 67.4724 46.0877 68.4885 46.0877 69.8564C46.0877 71.0809 46.9735 71.8365 48.4065 72.3576C49.592 72.8005 50.0609 73.2825 50.0609 74.0902C50.0609 74.976 49.3835 75.5883 48.2241 75.5883C47.4425 75.5883 46.713 75.3408 46.2049 75.0151L45.9053 75.9661Z" fill="#131313"/>
<path d="M62.854 76.396H63.9744L63.4272 67.6157H61.9812L60.418 71.8626C60.0272 72.9699 59.7145 73.9339 59.48 74.8197H59.454C59.2195 73.9078 58.9329 72.9438 58.5681 71.8626L57.07 67.6157H55.624L55.0117 76.396H56.093L56.3275 72.6312C56.4056 71.3024 56.4708 69.8434 56.4968 68.7491H56.5229C56.7704 69.7913 57.1091 70.9116 57.526 72.1622L58.9589 76.3439H59.8187L61.3689 72.084C61.8119 70.8725 62.1636 69.7652 62.4763 68.7491H62.5023C62.5023 69.8303 62.5805 71.3154 62.6456 72.54L62.854 76.396Z" fill="#131313"/>
<path d="M69.732 73.6343L70.67 76.396H71.8815L68.8852 67.6157H67.5304L64.5342 76.396H65.7066L66.6185 73.6343H69.732ZM66.853 72.7484L67.7128 70.2081C67.8952 69.674 68.0254 69.1269 68.1557 68.6188H68.1818C68.312 69.1269 68.4423 69.648 68.6377 70.2211L69.5105 72.7484H66.853Z" fill="#131313"/>
<path d="M73.8876 76.396V72.6442C73.8876 71.1852 73.8745 70.13 73.8094 69.0227L73.8485 69.0096C74.2784 69.9606 74.8646 70.9637 75.4769 71.9407L78.2647 76.396H79.4111V67.6157H78.3428V71.2894C78.3428 72.6572 78.3689 73.7254 78.4731 74.8979L78.434 74.9109C78.0302 74.012 77.5091 73.0871 76.8708 72.058L74.0699 67.6157H72.8193V76.396H73.8876Z" fill="#131313"/>
<path d="M85.6646 73.6343L86.6026 76.396H87.8141L84.8179 67.6157H83.463L80.4668 76.396H81.6392L82.5511 73.6343H85.6646ZM82.7856 72.7484L83.6454 70.2081C83.8278 69.674 83.9581 69.1269 84.0883 68.6188H84.1144C84.2447 69.1269 84.3749 69.648 84.5703 70.2211L85.4432 72.7484H82.7856Z" fill="#131313"/>
<path d="M95.3303 71.7845H92.4383V72.6964H94.21V75.3149C93.9494 75.4451 93.4414 75.5494 92.6988 75.5494C90.6405 75.5494 89.3118 74.2336 89.3118 72.006C89.3118 69.8044 90.7057 68.4756 92.8421 68.4756C93.728 68.4756 94.3142 68.632 94.7832 68.8534L95.0698 67.9285C94.692 67.7461 93.8843 67.5247 92.8682 67.5247C89.924 67.5247 88.1133 69.4396 88.1133 72.0581C88.1133 73.4259 88.5823 74.5984 89.3378 75.3279C90.1976 76.1486 91.2919 76.4873 92.6207 76.4873C93.8061 76.4873 94.8222 76.2007 95.3303 76.0053V71.7845Z" fill="#131313"/>
<path d="M101.296 71.3415H97.8964V68.5667H101.505V67.6157H96.75V76.396H101.7V75.445H97.8964V72.2794H101.296V71.3415Z" fill="#131313"/>
<path d="M110.441 76.396H111.561L111.014 67.6157H109.568L108.005 71.8626C107.614 72.9699 107.301 73.9339 107.067 74.8197H107.041C106.806 73.9078 106.52 72.9438 106.155 71.8626L104.657 67.6157H103.211L102.599 76.396H103.68L103.914 72.6312C103.993 71.3024 104.058 69.8434 104.084 68.7491H104.11C104.357 69.7913 104.696 70.9116 105.113 72.1622L106.546 76.3439H107.406L108.956 72.084C109.399 70.8725 109.751 69.7652 110.063 68.7491H110.089C110.089 69.8303 110.167 71.3154 110.233 72.54L110.441 76.396Z" fill="#131313"/>
<path d="M117.503 71.3415H114.102V68.5667H117.711V67.6157H112.956V76.396H117.906V75.445H114.102V72.2794H117.503V71.3415Z" fill="#131313"/>
<path d="M120.107 76.396V72.6442C120.107 71.1852 120.094 70.13 120.029 69.0227L120.068 69.0096C120.498 69.9606 121.084 70.9637 121.697 71.9407L124.484 76.396H125.631V67.6157H124.563V71.2894C124.563 72.6572 124.589 73.7254 124.693 74.8979L124.654 74.9109C124.25 74.012 123.729 73.0871 123.09 72.058L120.29 67.6157H119.039V76.396H120.107Z" fill="#131313"/>
<path d="M129.018 76.396H130.165V68.5797H132.848V67.6157H126.348V68.5797H129.018V76.396Z" fill="#131313"/>
<path d="M135.818 75.9661C136.287 76.2787 137.212 76.5393 138.059 76.5393C140.13 76.5393 141.12 75.3538 141.12 73.999C141.12 72.7093 140.378 71.9928 138.893 71.4196C137.681 70.9507 137.147 70.5468 137.147 69.7261C137.147 69.1269 137.603 68.4104 138.802 68.4104C139.596 68.4104 140.182 68.6579 140.456 68.8272L140.769 67.9023C140.391 67.6808 139.726 67.4724 138.841 67.4724C137.134 67.4724 136.001 68.4885 136.001 69.8564C136.001 71.0809 136.887 71.8365 138.32 72.3576C139.505 72.8005 139.974 73.2825 139.974 74.0902C139.974 74.976 139.297 75.5883 138.137 75.5883C137.356 75.5883 136.626 75.3408 136.118 75.0151L135.818 75.9661Z" fill="#131313"/>
<path d="M148.208 75.2105C147.752 75.432 147.048 75.5753 146.345 75.5753C144.221 75.5753 142.984 74.2074 142.984 72.0449C142.984 69.7391 144.352 68.4234 146.41 68.4234C147.139 68.4234 147.752 68.5797 148.168 68.7882L148.455 67.8632C148.155 67.7069 147.452 67.4724 146.371 67.4724C143.648 67.4724 141.785 69.3223 141.785 72.084C141.785 74.976 143.635 76.5393 146.11 76.5393C147.178 76.5393 148.025 76.3309 148.429 76.1224L148.208 75.2105Z" fill="#131313"/>
<path d="M149.718 67.6157V76.396H150.864V72.2794H155.111V76.396H156.257V67.6157H155.111V71.2894H150.864V67.6157H149.718Z" fill="#131313"/>
<path d="M161.481 67.4595C159.137 67.4595 157.417 69.2833 157.417 72.0711C157.417 74.7286 159.032 76.5394 161.364 76.5394C163.605 76.5394 165.442 74.924 165.442 71.9147C165.442 69.2963 163.891 67.4595 161.481 67.4595ZM161.442 68.3844C163.331 68.3844 164.243 70.2082 164.243 71.9669C164.243 73.96 163.227 75.6145 161.429 75.6145C159.632 75.6145 158.615 73.934 158.615 72.045C158.615 70.13 159.553 68.3844 161.442 68.3844Z" fill="#131313"/>
<path d="M170.223 67.4595C167.878 67.4595 166.158 69.2833 166.158 72.0711C166.158 74.7286 167.774 76.5394 170.105 76.5394C172.346 76.5394 174.183 74.924 174.183 71.9147C174.183 69.2963 172.633 67.4595 170.223 67.4595ZM170.184 68.3844C172.072 68.3844 172.984 70.2082 172.984 71.9669C172.984 73.96 171.968 75.6145 170.171 75.6145C168.373 75.6145 167.357 73.934 167.357 72.045C167.357 70.13 168.295 68.3844 170.184 68.3844Z" fill="#131313"/>
<path d="M175.407 76.396H180.305V75.445H176.554V67.6157H175.407V76.396Z" fill="#131313"/>
</g>
<defs>
<clipPath id="clip0_57_338">
<rect width="180.306" height="76.5393" fill="white"/>
</clipPath>
</defs>
</svg>
